# xmcd
#
# Track frame offsets:
#	150
#	12451
#	26998
#	41798
#	55980
#	67766
#	85856
#	106447
#	116417
#	131031
#	147288
#	160987
#
# Disc length: 2348 seconds
#
# Revision: 0
# Processed by: cddbd v1.4PL0 Copyright (c) Steve Scherf et al.
# Submitted via: EasyCDDAExtractor 4.6.9.1
#
DISCID=a7092a0c
DTITLE=Black Rose - The Road Before Me
DYEAR=1996
DGENRE=Bluegrass
TTITLE0=Arkansas Traveler
TTITLE1=Sweet Sunny South
TTITLE2=Summerfly
TTITLE3=Lover's Waltz
TTITLE4=I'm Satisfied With You
TTITLE5=Along the Navajo Trail
TTITLE6=Dead Egyption Blues
TTITLE7=Cajun Billy
TTITLE8=Can't Buy Your Way
TTITLE9=Heaven's Golden Shore
TTITLE10=The Road Before Me
TTITLE11=Out of the Blue
EXTD=
EXTT0=
EXTT1=
EXTT2=
EXTT3=
EXTT4=
EXTT5=
EXTT6=
EXTT7=
EXTT8=
EXTT9=
EXTT10=
EXTT11=
PLAYORDER=
